Coordinates
version=1
nRows=9
nColumns=24
inDegrees=yes

Units are S.I. units (second, meters, Newtons, ...)
Angles are in degrees.

endheader
time	pelvis_tilt	pelvis_list	pelvis_rotation	pelvis_tx	pelvis_ty	pelvis_tz	hip_flexion_r	hip_adduction_r	hip_rotation_r	knee_angle_r	ankle_angle_r	subtalar_angle_r	mtp_angle_r	hip_flexion_l	hip_adduction_l	hip_rotation_l	knee_angle_l	ankle_angle_l	subtalar_angle_l	mtp_angle_l	lumbar_extension	lumbar_bending	lumbar_rotation
      5.63000000	      5.10814894	      6.59017292	      6.88632681	     -0.91929139	      0.88549980	      0.10477036	     19.70248352	     -5.04783155	     -1.42052075	     -3.87942442	     11.68536176	      0.47095284	      0.00000000	    -19.62220652	      9.29943190	     14.94233509	     -5.71261085	     19.26222575	     -3.63687413	      0.00000000	    -26.11364697	     -3.93256222	    -14.04073000
      5.64000000	      5.26382086	      6.57828525	      7.05000382	     -0.90747488	      0.88490238	      0.10484827	     19.71431384	     -5.11307568	     -2.62388289	     -4.99799693	     12.03900787	      0.12750987	      0.00000000	    -19.88491297	      9.14848624	     13.35929795	     -7.05979112	     20.15550886	     -1.11577393	      0.00000000	    -26.25581661	     -3.67604475	    -14.26228389
      5.65000000	      5.39095746	      6.52158862	      7.30744678	     -0.89527911	      0.88438454	      0.10479341	     19.53156919	     -5.13917315	     -3.34662159	     -5.98948141	     12.07383337	     -0.73872174	      0.00000000	    -20.24953190	      8.90659069	     12.72136479	     -8.21584098	     20.38492506	      0.09905337	      0.00000000	    -26.28002583	     -3.33724716	    -14.58703571
      5.66000000	      5.49586262	      6.41884896	      7.61839443	     -0.88275571	      0.88399438	      0.10471985	     19.22546293	     -5.10729674	     -3.97472974	     -6.91516781	     11.92153256	     -1.54206726	      0.00000000	    -20.52902358	      8.58380612	     12.12931313	     -9.49886764	     20.50469749	      1.28989767	      0.00000000	    -26.20752068	     -2.94489349	    -14.96291148
      5.67000000	      5.54268466	      6.26875492	      7.90262343	     -0.86992829	      0.88369942	      0.10471484	     18.87944913	     -4.99096194	     -4.47248178	     -7.76789058	     11.35930477	     -2.38692127	      0.00000000	    -20.67876220	      8.21002929	     11.47282417	    -10.89741017	     20.43200353	      2.53903424	      0.00000000	    -25.99772683	     -2.52696939	    -15.27462128
      5.68000000	      5.63897517	      6.03912743	      8.17767421	     -0.85687676	      0.88367918	      0.10475808	     18.38290804	     -4.74777311	     -4.86375341	     -8.51058906	     10.55087254	     -3.18150581	      0.00000000	    -20.80184343	      7.74473043	     10.91056804	    -12.41500457	     20.13159774	      3.58102040	      0.00000000	    -25.79650205	     -2.02466151	    -15.57310669
      5.69000000	      5.70377099	      5.73717635	      8.35691316	     -0.84367470	      0.88383024	      0.10494871	     17.91642842	     -4.37996411	     -5.12625154	     -9.24130149	      9.43361521	     -3.97024840	      0.00000000	    -20.76126472	      7.24395155	     10.23667297	    -14.11799154	     19.63164782	      4.56235476	      0.00000000	    -25.52650517	     -1.49356218	    -15.73346056
      5.70000000	      5.80188522	      5.36877840	      8.41300980	     -0.83041217	      0.88426186	      0.10527455	     17.44973291	     -3.89557455	     -5.29426825	    -10.00161644	      8.21879148	     -4.62517422	      0.00000000	    -20.61910457	      6.73026133	      9.50711787	    -16.00035076	     18.80471253	      5.28874676	      0.00000000	    -25.28094579	     -0.92018315	    -15.76598042
      5.71000000	      5.90681459	      4.95338626	      8.30609078	     -0.81715758	      0.88492566	      0.10576908	     17.04997329	     -3.31914983	     -5.33380954	    -10.85077855	      7.06594330	     -5.09411487	      0.00000000	    -20.31399674	      6.24911809	      8.64763302	    -18.10875664	     17.60083890	      5.74081987	      0.00000000	    -25.05168284	     -0.34136222	    -15.63557286
